# xmcd
#
# Track frame offsets:
#	150
#	12590
#	24130
#	39652
#	47977
#	62187
#	73172
#	85897
#	101765
#	112300
#	122907
#	133440
#	147915
#	160487
#
# Disc length: 2330 seconds
#
# Revision: 1
# Processed by: cddbd v1.5.2PL0 Copyright (c) Steve Scherf et al.
# Submitted via: audiograbber 1.83.01
#
DISCID=da09180e
DTITLE=Paul Simon - The Complete Albums Collection [CD 01) - The Paul Simon Son
DTITLE=gbook [remastered 2004]
DYEAR=1965
DGENRE=Folk/Rock
TTITLE0=I Am A Rock [mono]
TTITLE1=Leaves That Are Green [mono]
TTITLE2=A Church Is Burning [mono]
TTITLE3=April Come She Will [mono]
TTITLE4=The Sound Of Silence [mono]
TTITLE5=A Most Peculiar Man [mono]
TTITLE6=He Was My Brother [mono]
TTITLE7=Kathy's Song [mono]
TTITLE8=The Side Of A Hill [mono]
TTITLE9=A Simple Desultory Philippic (Or How I Was Robert McNamara'd Into Submi
TTITLE9=ssion) [mono]
TTITLE10=Flowers Never Bend With The Rainfall [mono]
TTITLE11=Patterns [mono]
TTITLE12=I Am A Rock [alternate version] [mono] [bonus track]
TTITLE13=A Church Is Burning [alternate version] [mono] [bonus track]
EXTD=
EXTT0=
EXTT1=
EXTT2=
EXTT3=
EXTT4=
EXTT5=
EXTT6=
EXTT7=
EXTT8=
EXTT9=
EXTT10=
EXTT11=
EXTT12=
EXTT13=
PLAYORDER=
